<mxfile host="www.draw.io" modified="2019-12-26T17:43:21.852Z" agent="Mozilla/5.0 (Windows NT 10.0; Win64; x64) AppleWebKit/537.36 (KHTML, like Gecko) Chrome/79.0.3945.88 Safari/537.36" etag="vfjguAfN9wrctubBsb9g" version="12.4.3" type="github" pages="1">
  <diagram id="Bd32HZm1Y8YJOhgkvfDT" name="Page-1">
    <mxGraphModel dx="1943" dy="1146" grid="1" gridSize="10" guides="1" tooltips="1" connect="1" arrows="1" fold="1" page="1" pageScale="1" pageWidth="850" pageHeight="1100" math="0" shadow="0">
      <root>
        <mxCell id="0"/>
        <mxCell id="1" parent="0"/>
        <mxCell id="oETHvTald3iQSpr4ZHWJ-4" value="&lt;span style=&quot;margin: 0px ; padding: 0px ; box-sizing: inherit ; font-weight: bolder ; color: rgb(26 , 26 , 26) ; font-family: , &amp;#34;blinkmacsystemfont&amp;#34; , &amp;#34;segoe ui&amp;#34; , &amp;#34;roboto&amp;#34; , &amp;#34;oxygen&amp;#34; , &amp;#34;ubuntu&amp;#34; , &amp;#34;cantarell&amp;#34; , &amp;#34;fira sans&amp;#34; , &amp;#34;droid sans&amp;#34; , &amp;#34;helvetica neue&amp;#34; , sans-serif ; font-size: 16px ; text-align: left&quot;&gt;Package &lt;br&gt;Manager&lt;/span&gt;" style="rounded=0;whiteSpace=wrap;html=1;verticalAlign=top;fontStyle=0" vertex="1" parent="1">
          <mxGeometry x="120" y="340" width="120" height="150" as="geometry"/>
        </mxCell>
        <mxCell id="oETHvTald3iQSpr4ZHWJ-1" value="Yarn" style="rounded=0;whiteSpace=wrap;html=1;fontStyle=0;fontSize=15;" vertex="1" parent="1">
          <mxGeometry x="145" y="395" width="70" height="40" as="geometry"/>
        </mxCell>
        <mxCell id="oETHvTald3iQSpr4ZHWJ-2" value="Npm" style="rounded=0;whiteSpace=wrap;html=1;fontStyle=0;fontSize=15;" vertex="1" parent="1">
          <mxGeometry x="150" y="442" width="60" height="40" as="geometry"/>
        </mxCell>
        <mxCell id="oETHvTald3iQSpr4ZHWJ-7" value="&lt;span style=&quot;margin: 0px ; padding: 0px ; box-sizing: inherit ; font-weight: bolder ; color: rgb(26 , 26 , 26) ; font-family: , &amp;#34;blinkmacsystemfont&amp;#34; , &amp;#34;segoe ui&amp;#34; , &amp;#34;roboto&amp;#34; , &amp;#34;oxygen&amp;#34; , &amp;#34;ubuntu&amp;#34; , &amp;#34;cantarell&amp;#34; , &amp;#34;fira sans&amp;#34; , &amp;#34;droid sans&amp;#34; , &amp;#34;helvetica neue&amp;#34; , sans-serif ; font-size: 16px ; text-align: left&quot;&gt;Bundler&lt;/span&gt;" style="rounded=0;whiteSpace=wrap;html=1;verticalAlign=top;fontStyle=0" vertex="1" parent="1">
          <mxGeometry x="250" y="360" width="110" height="130" as="geometry"/>
        </mxCell>
        <mxCell id="oETHvTald3iQSpr4ZHWJ-8" value="Webpack" style="rounded=0;whiteSpace=wrap;html=1;fontStyle=0;fontSize=15;" vertex="1" parent="1">
          <mxGeometry x="265" y="392" width="80" height="40" as="geometry"/>
        </mxCell>
        <mxCell id="oETHvTald3iQSpr4ZHWJ-9" value="Parcel" style="rounded=0;whiteSpace=wrap;html=1;fontStyle=0;fontSize=15;" vertex="1" parent="1">
          <mxGeometry x="265" y="440" width="80" height="40" as="geometry"/>
        </mxCell>
        <mxCell id="oETHvTald3iQSpr4ZHWJ-12" value="&lt;span style=&quot;margin: 0px ; padding: 0px ; box-sizing: inherit ; font-weight: bolder ; color: rgb(26 , 26 , 26) ; font-family: , &amp;#34;blinkmacsystemfont&amp;#34; , &amp;#34;segoe ui&amp;#34; , &amp;#34;roboto&amp;#34; , &amp;#34;oxygen&amp;#34; , &amp;#34;ubuntu&amp;#34; , &amp;#34;cantarell&amp;#34; , &amp;#34;fira sans&amp;#34; , &amp;#34;droid sans&amp;#34; , &amp;#34;helvetica neue&amp;#34; , sans-serif ; font-size: 16px ; text-align: left&quot;&gt;Compiler&lt;/span&gt;" style="rounded=0;whiteSpace=wrap;html=1;verticalAlign=top;fontStyle=0" vertex="1" parent="1">
          <mxGeometry x="370" y="400" width="110" height="90" as="geometry"/>
        </mxCell>
        <mxCell id="oETHvTald3iQSpr4ZHWJ-13" value="&lt;div style=&quot;text-align: left&quot;&gt;&lt;span style=&quot;font-size: 16px&quot;&gt;&lt;font color=&quot;#1a1a1a&quot;&gt;Babel&lt;/font&gt;&lt;/span&gt;&lt;/div&gt;" style="rounded=0;whiteSpace=wrap;html=1;" vertex="1" parent="1">
          <mxGeometry x="380" y="440" width="90" height="35" as="geometry"/>
        </mxCell>
      </root>
    </mxGraphModel>
  </diagram>
</mxfile>
